<svg xmlns="http://www.w3.org/2000/svg" viewBox="-7636 36.793 323.627 41.608">
  <defs>
    <style>
      .cls-1, .cls-4 {
        fill: #333;
      }

      .cls-1, .cls-2 {
        fill-rule: evenodd;
      }

      .cls-2, .cls-3 {
        fill: #f2d483;
      }
    </style>
  </defs>
  <g id="Group_340" data-name="Group 340" transform="translate(-7668)">
    <path id="Path_15" data-name="Path 15" class="cls-1" d="M4.638,4.638H78.579V36.971H64.665V27.695H32.333v4.638H60.027v4.638H23.057V20.8H64.665V16.166H18.419v20.8H4.638ZM0,0H83.084V41.608H0Z" transform="translate(32 36.793)"/>
    <g id="Group_3" data-name="Group 3" transform="translate(133.95 48.935)">
      <path id="Path_16" data-name="Path 16" class="cls-2" d="M71.785,13.845,75.6,11.174l1.908,3.815h2.48L72.357.3H70.831L63.2,14.989h2.48l1.908-3.815Zm0-2.671L68.923,9.266l2.862-5.723,2.862,5.723Z" transform="translate(57.368 0.272)"/>
      <path id="Path_17" data-name="Path 17" class="cls-3" d="M100.589,6.5h7.822c1.526,0,2.48-.763,2.48-2.1s-.763-1.908-2.48-1.908h-7.822Zm0,2.1V15.08H98.3V.2h10.3c3.052,0,4.769,1.526,4.769,4.2a4.124,4.124,0,0,1-3.625,4.2l2.862,4.388h1.908v2.1h-3.052l-4.2-6.486Z" transform="translate(89.229 0.182)"/>
      <path id="Path_18" data-name="Path 18" class="cls-3" d="M90.389,6.5h7.822c1.526,0,2.48-.763,2.48-2.1s-.763-1.908-2.48-1.908H90.389Zm0,2.1V15.08H88.1V.2H98.4c3.052,0,4.769,1.526,4.769,4.2a4.124,4.124,0,0,1-3.625,4.2l2.862,4.388h1.908v2.1h-3.052l-4.2-6.486Z" transform="translate(79.97 0.182)"/>
      <path id="Path_19" data-name="Path 19" class="cls-3" d="M52.145,15.08V2.3H51V.2h3.434V15.08Z" transform="translate(46.294 0.182)"/>
      <path id="Path_20" data-name="Path 20" class="cls-3" d="M54.6,15.08,64.329,2.489H55.554V.2H68.526L58.8,12.982h7.631V11.837h2.1V15.08Z" transform="translate(49.562 0.182)"/>
      <path id="Path_21" data-name="Path 21" class="cls-3" d="M84.146,9.539V7.44h6.1v4.388c-1.717,2.48-4.388,3.815-8.2,3.815-5.532,0-9.348-3.434-9.348-7.822S76.515,0,82.048,0a10.3,10.3,0,0,1,6.3,1.908l.954-.763,1.145,1.717-2.48,1.908a7.393,7.393,0,0,0-6.1-2.671c-4.2,0-6.868,2.48-6.868,5.723s2.671,5.723,6.868,5.723c2.671,0,4.96-1.145,5.723-2.48V9.539Z" transform="translate(65.991)"/>
      <path id="Path_22" data-name="Path 22" class="cls-3" d="M84.945,15.08V2.3H83.8V.2h3.434V15.08Z" transform="translate(76.067 0.182)"/>
      <path id="Path_23" data-name="Path 23" class="cls-3" d="M109.145,15.08V2.3H108V.2h15.071V2.489H111.434V6.114h7.631v2.1h-7.631v4.769h12.209v2.1Z" transform="translate(98.034 0.182)"/>
      <path id="Path_24" data-name="Path 24" class="cls-1" d="M20.057,13.545c-4.006,0-6.677-2.48-6.677-5.723S16.051,2.1,20.057,2.1s6.677,2.48,6.677,5.723S24.254,13.545,20.057,13.545Zm0,2.1c5.532,0,9.157-3.434,9.157-7.822S25.589,0,20.057,0,10.9,3.434,10.9,7.822,14.525,15.643,20.057,15.643Z" transform="translate(9.894)"/>
      <path id="Path_25" data-name="Path 25" class="cls-1" d="M49.685,13.845,53.5,11.174l1.908,3.815h2.48L50.257.3H48.731L41.1,14.989h2.48l1.908-3.815Zm0-2.671L46.823,9.266l2.862-5.723,2.862,5.723Z" transform="translate(37.307 0.272)"/>
      <path id="Path_26" data-name="Path 26" class="cls-4" d="M24.389,6.5h7.822c1.526,0,2.48-.763,2.48-2.1s-.763-1.908-2.48-1.908H24.389Zm0,2.1V15.08H22.1V.2H32.4c3.052,0,4.769,1.526,4.769,4.2a4.124,4.124,0,0,1-3.625,4.2l2.862,4.388h1.908v2.1H35.263l-4.2-6.486Z" transform="translate(20.061 0.182)"/>
      <path id="Path_27" data-name="Path 27" class="cls-4" d="M11.256,9.539V7.44h6.1v4.388c-1.717,2.48-4.388,3.815-8.2,3.815C3.625,15.643,0,12.4,0,7.822,0,3.434,3.815,0,9.348,0a10.3,10.3,0,0,1,6.3,1.908l.954-.763,1.145,1.717-2.48,1.908A7.567,7.567,0,0,0,9.348,2.1c-4.2,0-6.868,2.48-6.868,5.723s2.671,5.723,6.868,5.723c2.671,0,4.96-1.145,5.723-2.48V9.539Z"/>
      <path id="Path_28" data-name="Path 28" class="cls-4" d="M33.345,15.08V2.3H32.2V.2h3.434V6.877L43.456.2h3.052l-6.3,5.342,7.249,9.539H44.791l-6.1-8.2L35.634,9.548V15.08Z" transform="translate(29.229 0.182)"/>
    </g>
  </g>
</svg>
